<svg version="1.0" xmlns="http://www.w3.org/2000/svg"
 width="300.000000pt" height="158.000000pt" viewBox="0 0 300.000000 158.000000"
 preserveAspectRatio="xMidYMid meet">
<title>icon-logo</title>
<g transform="translate(0.000000,158.000000) scale(0.100000,-0.100000)"
fill="#000000" stroke="none">
<path d="M503 1275 c-188 -41 -341 -203 -373 -397 -54 -318 229 -607 547 -558
260 40 446 293 405 552 -31 201 -183 362 -381 404 -80 17 -117 17 -198 -1z
m314 -271 c46 -18 83 -58 83 -90 0 -38 -27 -88 -69 -130 -71 -71 -236 -127
-276 -94 -21 17 -24 13 -100 -107 -60 -97 -61 -98 -103 -101 -50 -4 -52 4 -15
67 36 62 199 307 235 352 47 61 37 63 -68 15 -69 -32 -94 -56 -59 -56 26 0 16
-27 -14 -40 -46 -18 -84 -10 -95 22 -26 75 100 157 272 178 79 9 164 3 209
-16z"/>
<path d="M633 862 c-35 -54 -63 -102 -63 -107 0 -12 78 4 118 25 52 26 112 88
112 115 0 29 -30 55 -71 61 -34 5 -35 4 -96 -94z"/>
<path d="M2453 978 c-11 -13 -43 -61 -72 -108 -47 -78 -54 -84 -85 -86 -94 -3
-215 -138 -191 -213 12 -39 64 -24 127 37 l37 35 -10 -37 c-17 -61 12 -81 71
-51 26 13 33 14 52 2 34 -21 77 -5 132 50 56 58 94 129 79 151 -12 21 -58 35
-86 28 -37 -9 -104 -73 -127 -122 -24 -49 -56 -84 -77 -84 -35 0 7 98 128 295
38 63 69 116 69 119 0 14 -28 4 -47 -16z m92 -238 c11 -36 -74 -144 -120 -152
-56 -9 -3 109 68 152 40 25 44 25 52 0z m-251 -12 c-47 -58 -130 -138 -141
-138 -18 0 -16 9 10 55 26 45 99 105 129 105 21 0 21 0 2 -22z"/>
<path d="M2906 933 c-24 -38 -54 -87 -67 -109 -21 -37 -27 -41 -60 -40 -76 2
-189 -109 -189 -185 0 -67 51 -66 119 2 l42 42 -7 -42 c-7 -45 2 -61 38 -61
25 0 88 59 88 82 0 18 -4 17 -35 -11 -101 -89 -71 15 74 253 39 65 71 122 71
127 0 5 -7 9 -15 9 -9 0 -35 -30 -59 -67z m-125 -200 c-16 -30 -126 -143 -139
-143 -36 0 22 95 81 134 49 31 72 35 58 9z"/>
<path d="M1447 969 c-81 -19 -162 -79 -155 -115 5 -29 33 -40 65 -24 22 11 24
14 11 17 -35 8 -17 31 45 59 113 51 257 43 257 -15 0 -61 -178 -165 -205 -121
-3 5 17 43 45 85 49 73 50 75 26 75 -22 0 -43 -26 -141 -173 -111 -168 -131
-207 -101 -207 21 0 36 18 91 109 37 60 54 79 65 74 8 -3 31 -8 51 -11 75 -8
198 75 221 149 10 34 9 42 -8 60 -10 12 -33 28 -51 35 -36 16 -157 17 -216 3z"/>
<path d="M1967 753 c-13 -21 -36 -59 -50 -84 -36 -61 -74 -96 -88 -82 -14 14
2 69 38 131 18 31 22 47 14 55 -7 7 -14 7 -24 -1 -10 -8 -16 -9 -24 -1 -20 20
-79 0 -126 -41 -71 -63 -97 -139 -59 -173 26 -24 34 -22 86 18 51 38 58 42 50
22 -3 -8 3 -23 13 -35 15 -18 25 -21 54 -16 30 5 48 19 95 76 65 78 143 146
130 113 -12 -30 -12 -47 1 -52 14 -5 67 82 58 97 -13 21 -56 9 -95 -26 -44
-40 -48 -38 -25 6 15 28 14 30 -5 30 -12 0 -29 -14 -43 -37z m-137 -10 c0 -29
-121 -153 -149 -153 -40 0 39 112 104 148 23 13 45 15 45 5z"/>
</g>
</svg>
